<?xml version="1.0" encoding="utf-8"?>
<!-- Generator: Adobe Illustrator 19.1.0, SVG Export Plug-In . SVG Version: 6.00 Build 0)  -->
<svg version="1.1" id="Layer_1" xmlns="http://www.w3.org/2000/svg" xmlns:xlink="http://www.w3.org/1999/xlink" x="0px" y="0px"
	 viewBox="0 0 512 512" style="enable-background:new 0 0 512 512;" xml:space="preserve">
<style type="text/css">
	.st0{fill:#3F434A;}
	.st1{fill:#FFFFFF;}
</style>
<polygon class="st0" points="446,65.4 66,65.4 66,413.8 175.6,413.8 256.8,514.6 337.9,413.8 446,413.8 "/>
<g id="icomoon-ignore">
</g>
<path class="st1" d="M381,131.9C381,131.9,381,131.9,381,131.9l0,214.3c0,0,0,0,0,0H131c0,0,0,0,0,0V131.9c0,0,0,0,0,0
	C131,131.9,381,131.9,381,131.9z M381,114H131c-9.8,0-17.9,8-17.9,17.9v214.3c0,9.8,8,17.9,17.9,17.9h250c9.8,0,17.9-8,17.9-17.9
	V131.9C398.9,122,390.8,114,381,114L381,114z"/>
<path class="st1" d="M345.3,176.5c0,14.8-12,26.8-26.8,26.8s-26.8-12-26.8-26.8s12-26.8,26.8-26.8S345.3,161.7,345.3,176.5z"/>
<path class="st1" d="M363.1,328.3H148.9v-35.7l62.5-107.1l71.4,89.3h17.9l62.5-53.6V328.3z"/>
<path d="M33,414"/>
</svg>
