<!-- Generator: Adobe Illustrator 18.1.1, SVG Export Plug-In  -->
<svg version="1.1"
	 xmlns="http://www.w3.org/2000/svg" xmlns:xlink="http://www.w3.org/1999/xlink" xmlns:a="http://ns.adobe.com/AdobeSVGViewerExtensions/3.0/"
	 x="0px" y="0px" width="50px" height="50px" viewBox="0 0 50 50" enable-background="new 0 0 50 50" xml:space="preserve">
<defs>
</defs>
<g>
	<circle fill="#58595b" cx="25" cy="25" r="2.2641509"/>
	<path fill="#58595b" d="M25,0C11.1928806,0,0,11.1928806,0,25s11.1928806,25,25,25s25-11.1928787,25-25S38.8071213,0,25,0z
		 M25,44.71698c-10.8893862,0-19.71698-8.8275948-19.71698-19.71698S14.1106138,5.2830191,25,5.2830191
		S44.71698,14.1106081,44.71698,25S35.8893852,44.71698,25,44.71698z"/>
	<g>
		<line fill="none" stroke="#58595b" stroke-miterlimit="10" x1="15.6462231" y1="7.690609" x2="23.132431" y2="23.7201691"/>
		<line fill="none" stroke="#58595b" stroke-miterlimit="10" x1="27.7008266" y1="4.9056602" x2="26.5444565" y2="23.6318455"/>
		<line fill="none" stroke="#58595b" stroke-miterlimit="10" x1="21.6440945" y1="5.6124525" x2="24.6207676" y2="23.0517616"/>
	</g>
	<g>
		<line fill="none" stroke="#58595b" stroke-miterlimit="10" x1="38.5059814" y1="10.6927786" x2="25.6300735" y2="22.8254223"/>
		<line fill="none" stroke="#58595b" stroke-miterlimit="10" x1="44.9284744" y1="21.2673244" x2="26.7832546" y2="26.0378799"/>
		<line fill="none" stroke="#58595b" stroke-miterlimit="10" x1="42.3591461" y1="15.737215" x2="26.7312431" y2="24.0293064"/>
	</g>
	<g>
		<line fill="none" stroke="#58595b" stroke-miterlimit="10" x1="42.8191605" y1="33.3418007" x2="27.2624912" y2="24.916832"/>
		<line fill="none" stroke="#58595b" stroke-miterlimit="10" x1="34.7900963" y1="42.7547455" x2="24.5732651" y2="27.0186844"/>
		<line fill="none" stroke="#58595b" stroke-miterlimit="10" x1="39.2364044" y1="38.5817451" x2="26.4643536" y2="26.339819"/>
	</g>
	<g>
		<line fill="none" stroke="#58595b" stroke-miterlimit="10" x1="22.6628513" y1="44.535759" x2="25.7880287" y2="27.1224499"/>
		<line fill="none" stroke="#58595b" stroke-miterlimit="10" x1="11.207839" y1="39.8611336" x2="22.9492741" y2="25.2274075"/>
		<line fill="none" stroke="#58595b" stroke-miterlimit="10" x1="16.5640602" y1="42.7756577" x2="24.1865959" y2="26.8104763"/>
	</g>
	<g>
		<line fill="none" stroke="#58595b" stroke-miterlimit="10" x1="5.715941" y1="28.902977" x2="23.2314358" y2="26.4134941"/>
		<line fill="none" stroke="#58595b" stroke-miterlimit="10" x1="6.5651445" y1="16.5600319" x2="24.1413651" y2="23.1238518"/>
		<line fill="none" stroke="#58595b" stroke-miterlimit="10" x1="5.4760504" y1="22.5598202" x2="23.0258141" y2="24.7949638"/>
	</g>
	<line fill="none" stroke="#58595b" stroke-miterlimit="10" x1="10.1886797" y1="10.6927786" x2="24.0566044" y2="24.0293064"/>
	<line fill="none" stroke="#58595b" stroke-miterlimit="10" x1="34.0014725" y1="6.478518" x2="25.6298122" y2="23.8018436"/>
	<line fill="none" stroke="#58595b" stroke-miterlimit="10" x1="45.4009361" y1="27.8059978" x2="26.3344879" y2="25.2266769"/>
	<line fill="none" stroke="#58595b" stroke-miterlimit="10" x1="28.6668301" y1="45.2639122" x2="25.1988621" y2="26.3389149"/>
	<line fill="none" stroke="#58595b" stroke-miterlimit="10" x1="6.8760433" y1="34.7772179" x2="23.7889977" y2="25.604744"/>
</g>
</svg>
